<svg width="160" height="160" viewBox="0 0 160 160" fill="none" xmlns="http://www.w3.org/2000/svg">
<g filter="url(#filter0_d_2186_16614)">
<rect x="30" y="10" width="100" height="100" rx="5" fill="#F79901"/>
</g>
<path d="M95.0475 49.48H109.657C110.327 49.48 110.875 48.9321 110.875 48.2625V33.6525C110.875 32.9829 110.327 32.435 109.657 32.435H95.0475C94.3779 32.435 93.83 32.9829 93.83 33.6525V39.74H86.4032C85.9162 37.3537 84.0413 35.4787 81.655 34.9917V31.2175C81.655 30.5479 81.1071 30 80.4375 30C79.7679 30 79.22 30.5479 79.22 31.2175V34.9917C76.4441 35.5518 74.35 38.0111 74.35 40.9575C74.35 43.9038 76.4441 46.351 79.22 46.9232V54.4717C76.8337 54.9587 74.9587 56.8337 74.4717 59.22H67.045V53.1325C67.045 52.4629 66.4971 51.915 65.8275 51.915H51.2175C50.5479 51.915 50 52.4629 50 53.1325V67.7425C50 68.4121 50.5479 68.96 51.2175 68.96H65.8275C66.4971 68.96 67.045 68.4121 67.045 67.7425V61.655H74.4717C74.9587 64.0413 76.8337 65.9162 79.22 66.4032V73.9517C76.4441 74.5118 74.35 76.9711 74.35 79.9175C74.35 82.8638 76.4441 85.311 79.22 85.8832V89.6575C79.22 90.3271 79.7679 90.875 80.4375 90.875C81.1071 90.875 81.655 90.3271 81.655 89.6575V85.8832C84.0413 85.3962 85.9162 83.5213 86.4032 81.135H93.83V87.2225C93.83 87.8921 94.3779 88.44 95.0475 88.44H109.657C110.327 88.44 110.875 87.8921 110.875 87.2225V72.6125C110.875 71.9429 110.327 71.395 109.657 71.395H95.0475C94.3779 71.395 93.83 71.9429 93.83 72.6125V78.7H86.4032C85.9162 76.3137 84.0413 74.4387 81.655 73.9517V66.4032C84.4309 65.8432 86.525 63.3838 86.525 60.4375C86.525 57.4911 84.4309 55.044 81.655 54.4717V46.9232C84.0413 46.4362 85.9162 44.5613 86.4032 42.175H93.83V48.2625C93.83 48.9321 94.3779 49.48 95.0475 49.48Z" fill="white"/>
<defs>
<filter id="filter0_d_2186_16614" x="0" y="0" width="160" height="160" filterUnits="userSpaceOnUse" color-interpolation-filters="sRGB">
<feFlood flood-opacity="0" result="BackgroundImageFix"/>
<feColorMatrix in="SourceAlpha" type="matrix" values="0 0 0 0 0 0 0 0 0 0 0 0 0 0 0 0 0 0 127 0" result="hardAlpha"/>
<feOffset dy="20"/>
<feGaussianBlur stdDeviation="15"/>
<feColorMatrix type="matrix" values="0 0 0 0 1 0 0 0 0 0.55006 0 0 0 0 0.296969 0 0 0 0.4 0"/>
<feBlend mode="normal" in2="BackgroundImageFix" result="effect1_dropShadow_2186_16614"/>
<feBlend mode="normal" in="SourceGraphic" in2="effect1_dropShadow_2186_16614" result="shape"/>
</filter>
</defs>
</svg>
