<svg width="160" height="160" viewBox="0 0 160 160" fill="none" xmlns="http://www.w3.org/2000/svg">
<g filter="url(#filter0_d_2186_16713)">
<rect x="30" y="10" width="100" height="100" rx="5" fill="#F79901"/>
</g>
<path d="M90.9241 55.9685C91.824 58.0254 92.3382 60.2751 92.3382 62.7177C92.3382 71.9095 84.882 79.3657 75.6902 79.3657C66.4984 79.3657 59.0421 71.9095 59.0421 62.7177C59.0421 53.4616 66.4984 46.0054 75.6902 46.0054C78.0685 46.0054 80.3825 46.5196 82.4394 47.4195L86.4889 42.5986C83.275 40.8631 79.6112 39.8989 75.7545 39.8989C63.2202 39.8989 53 50.1192 53 62.6534C53 70.6882 57.2424 77.8231 63.5416 81.8083L60.0063 88.0433C59.6849 88.6218 59.6849 89.3931 60.0063 90.0359C60.3277 90.6144 61.0348 91.0001 61.6776 91.0001H89.7028C90.4099 91.0001 91.0527 90.6144 91.3741 90.0359C91.6955 89.4574 91.7597 88.6861 91.3741 88.0433L87.8388 81.8083C94.2023 77.7588 98.3804 70.6882 98.3804 62.6534C98.3804 58.7967 97.4162 55.1329 95.6807 51.9189L90.9241 55.9685Z" fill="white"/>
<path d="M78.9692 51.5333C77.9407 51.2119 76.7837 51.019 75.691 51.019C69.2632 51.019 64.0566 56.2256 64.0566 62.6534C64.0566 69.0169 69.2632 74.2877 75.691 74.2877C82.0545 74.2877 87.3253 69.0812 87.3253 62.6534C87.3253 61.4964 87.1325 60.4037 86.8754 59.3752L78.9692 65.9316C77.0408 67.5385 74.084 67.2814 72.4771 65.3531C70.9987 63.6176 71.063 61.1107 72.4771 59.4395L78.9692 51.5333Z" fill="white"/>
<path d="M108.279 37.5205C108.15 37.1349 107.764 36.8778 107.314 36.8778H101.465V31.0285C101.465 30.6428 101.208 30.2571 100.822 30.0643C100.437 29.9357 99.9867 30 99.7296 30.2571L92.7232 37.2634C92.5304 37.4563 92.4019 37.7134 92.4019 37.9705V41.8915L74.404 61.3678C73.7612 62.0748 73.7612 63.1675 74.404 63.8746C75.111 64.6459 76.268 64.6459 76.9751 63.9389L96.3871 45.8767H100.308C100.565 45.8767 100.822 45.7482 101.015 45.5553L108.021 38.549C108.343 38.3562 108.407 37.9062 108.279 37.5205Z" fill="white"/>
<defs>
<filter id="filter0_d_2186_16713" x="0" y="0" width="160" height="160" filterUnits="userSpaceOnUse" color-interpolation-filters="sRGB">
<feFlood flood-opacity="0" result="BackgroundImageFix"/>
<feColorMatrix in="SourceAlpha" type="matrix" values="0 0 0 0 0 0 0 0 0 0 0 0 0 0 0 0 0 0 127 0" result="hardAlpha"/>
<feOffset dy="20"/>
<feGaussianBlur stdDeviation="15"/>
<feColorMatrix type="matrix" values="0 0 0 0 1 0 0 0 0 0.55006 0 0 0 0 0.296969 0 0 0 0.4 0"/>
<feBlend mode="normal" in2="BackgroundImageFix" result="effect1_dropShadow_2186_16713"/>
<feBlend mode="normal" in="SourceGraphic" in2="effect1_dropShadow_2186_16713" result="shape"/>
</filter>
</defs>
</svg>
